solid OpenSCAD_Model
  facet normal 0 0 -1
    outer loop
      vertex -20 12 0
      vertex 10.15 1.14999 0
      vertex -10.15 1.14999 0
    endloop
  endfacet
  facet normal 0 -0 -1
    outer loop
      vertex 10.15 -1.14999 0
      vertex 20 -12 0
      vertex -20 -12 0
    endloop
  endfacet
  facet normal 0 0 -1
    outer loop
      vertex 20 -12 0
      vertex 10.15 -1.14999 0
      vertex 10.15 1.14999 0
    endloop
  endfacet
  facet normal 0 0 -1
    outer loop
      vertex 10.15 1.14999 0
      vertex 20 12 0
      vertex 20 -12 0
    endloop
  endfacet
  facet normal 0 0 -1
    outer loop
      vertex -20 12 0
      vertex -10.15 -1.14999 0
      vertex -20 -12 0
    endloop
  endfacet
  facet normal 0 -0 -1
    outer loop
      vertex -10.15 -1.14999 0
      vertex 10.15 -1.14999 0
      vertex -20 -12 0
    endloop
  endfacet
  facet normal 0 0 -1
    outer loop
      vertex -20 12 0
      vertex -10.15 1.14999 0
      vertex -10.15 -1.14999 0
    endloop
  endfacet
  facet normal -0 0 -1
    outer loop
      vertex 20 12 0
      vertex 10.15 1.14999 0
      vertex -20 12 0
    endloop
  endfacet
  facet normal 0 -0 1
    outer loop
      vertex -10.15 1.14999 2
      vertex 10.15 1.14999 2
      vertex -20 12 2
    endloop
  endfacet
  facet normal 0 0 1
    outer loop
      vertex -20 -12 2
      vertex 20 -12 2
      vertex 10.15 -1.14999 2
    endloop
  endfacet
  facet normal 0 0 1
    outer loop
      vertex 10.15 1.14999 2
      vertex 10.15 -1.14999 2
      vertex 20 -12 2
    endloop
  endfacet
  facet normal 0 -0 1
    outer loop
      vertex 20 -12 2
      vertex 20 12 2
      vertex 10.15 1.14999 2
    endloop
  endfacet
  facet normal 0 0 1
    outer loop
      vertex -20 -12 2
      vertex -10.15 -1.14999 2
      vertex -20 12 2
    endloop
  endfacet
  facet normal 0 0 1
    outer loop
      vertex -20 -12 2
      vertex 10.15 -1.14999 2
      vertex -10.15 -1.14999 2
    endloop
  endfacet
  facet normal 0 -0 1
    outer loop
      vertex -10.15 -1.14999 2
      vertex -10.15 1.14999 2
      vertex -20 12 2
    endloop
  endfacet
  facet normal -0 0 1
    outer loop
      vertex -20 12 2
      vertex 10.15 1.14999 2
      vertex 20 12 2
    endloop
  endfacet
  facet normal 0 1 0
    outer loop
      vertex -20 12 0
      vertex 20 12 2
      vertex 20 12 0
    endloop
  endfacet
  facet normal 0 1 0
    outer loop
      vertex -20 12 0
      vertex -20 12 2
      vertex 20 12 2
    endloop
  endfacet
  facet normal -1 0 0
    outer loop
      vertex -20 -12 0
      vertex -20 12 2
      vertex -20 12 0
    endloop
  endfacet
  facet normal -1 0 0
    outer loop
      vertex -20 -12 0
      vertex -20 -12 2
      vertex -20 12 2
    endloop
  endfacet
  facet normal 0 -1 0
    outer loop
      vertex 20 -12 0
      vertex -20 -12 2
      vertex -20 -12 0
    endloop
  endfacet
  facet normal 0 -1 0
    outer loop
      vertex 20 -12 0
      vertex 20 -12 2
      vertex -20 -12 2
    endloop
  endfacet
  facet normal 1 0 0
    outer loop
      vertex 20 12 0
      vertex 20 -12 2
      vertex 20 -12 0
    endloop
  endfacet
  facet normal 1 0 -0
    outer loop
      vertex 20 12 0
      vertex 20 12 2
      vertex 20 -12 2
    endloop
  endfacet
  facet normal 1 0 -0
    outer loop
      vertex -10.15 1.14999 0
      vertex -10.15 1.14999 2
      vertex -10.15 -1.14999 0
    endloop
  endfacet
  facet normal 1 -0 0
    outer loop
      vertex -10.15 -1.14999 2
      vertex -10.15 -1.14999 0
      vertex -10.15 1.14999 2
    endloop
  endfacet
  facet normal 0 -1 0
    outer loop
      vertex 10.15 1.14999 0
      vertex 10.15 1.14999 2
      vertex -10.15 1.14999 0
    endloop
  endfacet
  facet normal 0 -1 0
    outer loop
      vertex -10.15 1.14999 2
      vertex -10.15 1.14999 0
      vertex 10.15 1.14999 2
    endloop
  endfacet
  facet normal -1 0 0
    outer loop
      vertex 10.15 -1.14999 0
      vertex 10.15 -1.14999 2
      vertex 10.15 1.14999 0
    endloop
  endfacet
  facet normal -1 -0 -0
    outer loop
      vertex 10.15 1.14999 2
      vertex 10.15 1.14999 0
      vertex 10.15 -1.14999 2
    endloop
  endfacet
  facet normal 0 1 0
    outer loop
      vertex -10.15 -1.14999 0
      vertex -10.15 -1.14999 2
      vertex 10.15 -1.14999 0
    endloop
  endfacet
  facet normal 0 1 0
    outer loop
      vertex 10.15 -1.14999 2
      vertex 10.15 -1.14999 0
      vertex -10.15 -1.14999 2
    endloop
  endfacet
endsolid OpenSCAD_Model
