solid OpenSCAD_Model
  facet normal -0 -0 -1
    outer loop
      vertex 10 0 0
      vertex 10 -2 0
      vertex -10 0 0
    endloop
  endfacet
  facet normal 0 0 -1
    outer loop
      vertex 10 0 0
      vertex -12 14 0
      vertex 12 14 0
    endloop
  endfacet
  facet normal 0 0 -1
    outer loop
      vertex 10 0 0
      vertex 12 14 0
      vertex 12 0 0
    endloop
  endfacet
  facet normal 0 0 -1
    outer loop
      vertex -12 0 0
      vertex -12 14 0
      vertex -10 0 0
    endloop
  endfacet
  facet normal 0 0 -1
    outer loop
      vertex -10 -2 0
      vertex -10 0 0
      vertex 10 -2 0
    endloop
  endfacet
  facet normal 0 0 -1
    outer loop
      vertex -10 0 0
      vertex -12 14 0
      vertex 10 0 0
    endloop
  endfacet
  facet normal -0 0 1
    outer loop
      vertex -10 0 2
      vertex 10 -2 2
      vertex 10 0 2
    endloop
  endfacet
  facet normal 0 0 1
    outer loop
      vertex 12 14 2
      vertex -12 14 2
      vertex 10 0 2
    endloop
  endfacet
  facet normal 0 -0 1
    outer loop
      vertex 12 0 2
      vertex 12 14 2
      vertex 10 0 2
    endloop
  endfacet
  facet normal 0 0 1
    outer loop
      vertex -10 0 2
      vertex -12 14 2
      vertex -12 0 2
    endloop
  endfacet
  facet normal 0 0 1
    outer loop
      vertex 10 -2 2
      vertex -10 0 2
      vertex -10 -2 2
    endloop
  endfacet
  facet normal 0 0 1
    outer loop
      vertex 10 0 2
      vertex -12 14 2
      vertex -10 0 2
    endloop
  endfacet
  facet normal 1 0 0
    outer loop
      vertex 10 0 0
      vertex 10 -2 2
      vertex 10 -2 0
    endloop
  endfacet
  facet normal 1 0 -0
    outer loop
      vertex 10 0 0
      vertex 10 0 2
      vertex 10 -2 2
    endloop
  endfacet
  facet normal 0 -1 0
    outer loop
      vertex 12 0 0
      vertex 10 0 2
      vertex 10 0 0
    endloop
  endfacet
  facet normal 0 -1 0
    outer loop
      vertex 12 0 0
      vertex 12 0 2
      vertex 10 0 2
    endloop
  endfacet
  facet normal 1 0 0
    outer loop
      vertex 12 14 0
      vertex 12 0 2
      vertex 12 0 0
    endloop
  endfacet
  facet normal 1 0 -0
    outer loop
      vertex 12 14 0
      vertex 12 14 2
      vertex 12 0 2
    endloop
  endfacet
  facet normal 0 1 0
    outer loop
      vertex -12 14 0
      vertex 12 14 2
      vertex 12 14 0
    endloop
  endfacet
  facet normal 0 1 0
    outer loop
      vertex -12 14 0
      vertex -12 14 2
      vertex 12 14 2
    endloop
  endfacet
  facet normal -1 0 0
    outer loop
      vertex -12 0 0
      vertex -12 14 2
      vertex -12 14 0
    endloop
  endfacet
  facet normal -1 0 0
    outer loop
      vertex -12 0 0
      vertex -12 0 2
      vertex -12 14 2
    endloop
  endfacet
  facet normal 0 -1 0
    outer loop
      vertex -10 0 0
      vertex -12 0 2
      vertex -12 0 0
    endloop
  endfacet
  facet normal 0 -1 0
    outer loop
      vertex -10 0 0
      vertex -10 0 2
      vertex -12 0 2
    endloop
  endfacet
  facet normal -1 0 0
    outer loop
      vertex -10 -2 0
      vertex -10 0 2
      vertex -10 0 0
    endloop
  endfacet
  facet normal -1 0 0
    outer loop
      vertex -10 -2 0
      vertex -10 -2 2
      vertex -10 0 2
    endloop
  endfacet
  facet normal 0 -1 0
    outer loop
      vertex 10 -2 0
      vertex -10 -2 2
      vertex -10 -2 0
    endloop
  endfacet
  facet normal 0 -1 0
    outer loop
      vertex 10 -2 0
      vertex 10 -2 2
      vertex -10 -2 2
    endloop
  endfacet
endsolid OpenSCAD_Model
