solid OpenSCAD_Model
  facet normal 0 0 -1
    outer loop
      vertex -39 96 0
      vertex 39 96 0
      vertex 10 0 0
    endloop
  endfacet
  facet normal -0 -0 -1
    outer loop
      vertex -10 0 0
      vertex -10 -2 0
      vertex -30 0 0
    endloop
  endfacet
  facet normal 0 0 -1
    outer loop
      vertex 10 0 0
      vertex 39 96 0
      vertex 30 0 0
    endloop
  endfacet
  facet normal 0 0 -1
    outer loop
      vertex -10 0 0
      vertex -39 96 0
      vertex 10 0 0
    endloop
  endfacet
  facet normal 0 0 -1
    outer loop
      vertex 10 0 0
      vertex 30 -2 0
      vertex 10 -2 0
    endloop
  endfacet
  facet normal 0 0 -1
    outer loop
      vertex 10 0 0
      vertex 30 0 0
      vertex 30 -2 0
    endloop
  endfacet
  facet normal 0 0 -1
    outer loop
      vertex 30 0 0
      vertex 39 96 0
      vertex 39 0 0
    endloop
  endfacet
  facet normal 0 0 -1
    outer loop
      vertex -39 0 0
      vertex -39 96 0
      vertex -30 0 0
    endloop
  endfacet
  facet normal 0 0 -1
    outer loop
      vertex -30 -2 0
      vertex -30 0 0
      vertex -10 -2 0
    endloop
  endfacet
  facet normal 0 0 -1
    outer loop
      vertex -30 0 0
      vertex -39 96 0
      vertex -10 0 0
    endloop
  endfacet
  facet normal 0 -0 1
    outer loop
      vertex 10 0 2
      vertex 39 96 2
      vertex -39 96 2
    endloop
  endfacet
  facet normal -0 0 1
    outer loop
      vertex -30 0 2
      vertex -10 -2 2
      vertex -10 0 2
    endloop
  endfacet
  facet normal 0 -0 1
    outer loop
      vertex 30 0 2
      vertex 39 96 2
      vertex 10 0 2
    endloop
  endfacet
  facet normal 0 0 1
    outer loop
      vertex 10 0 2
      vertex -39 96 2
      vertex -10 0 2
    endloop
  endfacet
  facet normal 0 0 1
    outer loop
      vertex 10 -2 2
      vertex 30 -2 2
      vertex 10 0 2
    endloop
  endfacet
  facet normal 0 -0 1
    outer loop
      vertex 30 -2 2
      vertex 30 0 2
      vertex 10 0 2
    endloop
  endfacet
  facet normal 0 -0 1
    outer loop
      vertex 39 0 2
      vertex 39 96 2
      vertex 30 0 2
    endloop
  endfacet
  facet normal 0 0 1
    outer loop
      vertex -30 0 2
      vertex -39 96 2
      vertex -39 0 2
    endloop
  endfacet
  facet normal 0 0 1
    outer loop
      vertex -10 -2 2
      vertex -30 0 2
      vertex -30 -2 2
    endloop
  endfacet
  facet normal 0 0 1
    outer loop
      vertex -10 0 2
      vertex -39 96 2
      vertex -30 0 2
    endloop
  endfacet
  facet normal 1 0 0
    outer loop
      vertex -10 0 0
      vertex -10 -2 2
      vertex -10 -2 0
    endloop
  endfacet
  facet normal 1 0 -0
    outer loop
      vertex -10 0 0
      vertex -10 0 2
      vertex -10 -2 2
    endloop
  endfacet
  facet normal 0 -1 0
    outer loop
      vertex 10 0 0
      vertex -10 0 2
      vertex -10 0 0
    endloop
  endfacet
  facet normal 0 -1 0
    outer loop
      vertex 10 0 0
      vertex 10 0 2
      vertex -10 0 2
    endloop
  endfacet
  facet normal -1 0 0
    outer loop
      vertex 10 -2 0
      vertex 10 0 2
      vertex 10 0 0
    endloop
  endfacet
  facet normal -1 0 0
    outer loop
      vertex 10 -2 0
      vertex 10 -2 2
      vertex 10 0 2
    endloop
  endfacet
  facet normal 0 -1 0
    outer loop
      vertex 30 -2 0
      vertex 10 -2 2
      vertex 10 -2 0
    endloop
  endfacet
  facet normal 0 -1 0
    outer loop
      vertex 30 -2 0
      vertex 30 -2 2
      vertex 10 -2 2
    endloop
  endfacet
  facet normal 1 0 0
    outer loop
      vertex 30 0 0
      vertex 30 -2 2
      vertex 30 -2 0
    endloop
  endfacet
  facet normal 1 0 -0
    outer loop
      vertex 30 0 0
      vertex 30 0 2
      vertex 30 -2 2
    endloop
  endfacet
  facet normal 0 -1 0
    outer loop
      vertex 39 0 0
      vertex 30 0 2
      vertex 30 0 0
    endloop
  endfacet
  facet normal 0 -1 0
    outer loop
      vertex 39 0 0
      vertex 39 0 2
      vertex 30 0 2
    endloop
  endfacet
  facet normal 1 0 0
    outer loop
      vertex 39 96 0
      vertex 39 0 2
      vertex 39 0 0
    endloop
  endfacet
  facet normal 1 0 -0
    outer loop
      vertex 39 96 0
      vertex 39 96 2
      vertex 39 0 2
    endloop
  endfacet
  facet normal 0 1 0
    outer loop
      vertex -39 96 0
      vertex 39 96 2
      vertex 39 96 0
    endloop
  endfacet
  facet normal 0 1 0
    outer loop
      vertex -39 96 0
      vertex -39 96 2
      vertex 39 96 2
    endloop
  endfacet
  facet normal -1 0 0
    outer loop
      vertex -39 0 0
      vertex -39 96 2
      vertex -39 96 0
    endloop
  endfacet
  facet normal -1 0 0
    outer loop
      vertex -39 0 0
      vertex -39 0 2
      vertex -39 96 2
    endloop
  endfacet
  facet normal 0 -1 0
    outer loop
      vertex -30 0 0
      vertex -39 0 2
      vertex -39 0 0
    endloop
  endfacet
  facet normal 0 -1 0
    outer loop
      vertex -30 0 0
      vertex -30 0 2
      vertex -39 0 2
    endloop
  endfacet
  facet normal -1 0 0
    outer loop
      vertex -30 -2 0
      vertex -30 0 2
      vertex -30 0 0
    endloop
  endfacet
  facet normal -1 0 0
    outer loop
      vertex -30 -2 0
      vertex -30 -2 2
      vertex -30 0 2
    endloop
  endfacet
  facet normal 0 -1 0
    outer loop
      vertex -10 -2 0
      vertex -30 -2 2
      vertex -30 -2 0
    endloop
  endfacet
  facet normal 0 -1 0
    outer loop
      vertex -10 -2 0
      vertex -10 -2 2
      vertex -30 -2 2
    endloop
  endfacet
endsolid OpenSCAD_Model
