solid OpenSCAD_Model
  facet normal 0 0 -1
    outer loop
      vertex -36.85 89.65 0
      vertex -39 122.85 0
      vertex -36.85 122.85 0
    endloop
  endfacet
  facet normal 0 0 -1
    outer loop
      vertex 36.85 15.85 0
      vertex 39 15.85 0
      vertex 39 0 0
    endloop
  endfacet
  facet normal -0 -0 -1
    outer loop
      vertex 36.85 122.85 0
      vertex 36.85 89.65 0
      vertex -36.85 122.85 0
    endloop
  endfacet
  facet normal -0 -0 -1
    outer loop
      vertex 36.85 89.65 0
      vertex 36.85 69.35 0
      vertex -36.85 89.65 0
    endloop
  endfacet
  facet normal 0 0 -1
    outer loop
      vertex 36.85 69.35 0
      vertex 39 69.35 0
      vertex 39 36.15 0
    endloop
  endfacet
  facet normal 0 0 -1
    outer loop
      vertex 36.85 36.15 0
      vertex 36.85 69.35 0
      vertex 39 36.15 0
    endloop
  endfacet
  facet normal 0 -0 -1
    outer loop
      vertex 9.84999 153.35 0
      vertex 36.85 122.85 0
      vertex -36.85 122.85 0
    endloop
  endfacet
  facet normal 0 0 -1
    outer loop
      vertex -9.84999 153.35 0
      vertex -36.85 122.85 0
      vertex -36.85 143.15 0
    endloop
  endfacet
  facet normal 0 0 -1
    outer loop
      vertex 36.85 122.85 0
      vertex 39 122.85 0
      vertex 39 89.65 0
    endloop
  endfacet
  facet normal 0 0 -1
    outer loop
      vertex 36.85 89.65 0
      vertex 36.85 122.85 0
      vertex 39 89.65 0
    endloop
  endfacet
  facet normal 0 0 -1
    outer loop
      vertex -39 143.15 0
      vertex -39 156 0
      vertex -36.85 143.15 0
    endloop
  endfacet
  facet normal 0 0 -1
    outer loop
      vertex 36.85 143.15 0
      vertex 39 156 0
      vertex 39 143.15 0
    endloop
  endfacet
  facet normal 0 0 -1
    outer loop
      vertex -36.85 143.15 0
      vertex -39 156 0
      vertex -30.15 153.35 0
    endloop
  endfacet
  facet normal 0 0 -1
    outer loop
      vertex -36.85 89.65 0
      vertex -39 89.65 0
      vertex -39 122.85 0
    endloop
  endfacet
  facet normal -0 -0 -1
    outer loop
      vertex 30.15 153.35 0
      vertex 36.85 143.15 0
      vertex 9.84999 153.35 0
    endloop
  endfacet
  facet normal 0 0 -1
    outer loop
      vertex 36.85 69.35 0
      vertex -36.85 69.35 0
      vertex -36.85 89.65 0
    endloop
  endfacet
  facet normal -0 -0 -1
    outer loop
      vertex 36.85 69.35 0
      vertex 36.85 36.15 0
      vertex -36.85 69.35 0
    endloop
  endfacet
  facet normal -0 -0 -1
    outer loop
      vertex -36.85 69.35 0
      vertex -36.85 36.15 0
      vertex -39 69.35 0
    endloop
  endfacet
  facet normal 0 0 -1
    outer loop
      vertex 36.85 89.65 0
      vertex -36.85 89.65 0
      vertex -36.85 122.85 0
    endloop
  endfacet
  facet normal 0 0 -1
    outer loop
      vertex -36.85 69.35 0
      vertex 36.85 36.15 0
      vertex -36.85 36.15 0
    endloop
  endfacet
  facet normal 0 0 -1
    outer loop
      vertex -39 36.15 0
      vertex -39 69.35 0
      vertex -36.85 36.15 0
    endloop
  endfacet
  facet normal 0 0 -1
    outer loop
      vertex -36.85 15.85 0
      vertex -9.84999 3.14999 0
      vertex -30.15 3.14999 0
    endloop
  endfacet
  facet normal 0 0 -1
    outer loop
      vertex -36.85 36.15 0
      vertex 9.84999 3.14999 0
      vertex -9.84999 3.14999 0
    endloop
  endfacet
  facet normal 0 0 -1
    outer loop
      vertex -39 0 0
      vertex -30.15 3.14999 0
      vertex -30.15 0.849991 0
    endloop
  endfacet
  facet normal 0 0 -1
    outer loop
      vertex -39 0 0
      vertex -39 15.85 0
      vertex -36.85 15.85 0
    endloop
  endfacet
  facet normal 0 0 -1
    outer loop
      vertex 39 0 0
      vertex -39 0 0
      vertex 9.84999 0.849991 0
    endloop
  endfacet
  facet normal 0 0 -1
    outer loop
      vertex -36.85 122.85 0
      vertex -9.84999 153.35 0
      vertex 9.84999 153.35 0
    endloop
  endfacet
  facet normal 0 0 -1
    outer loop
      vertex -30.15 153.35 0
      vertex -39 156 0
      vertex -30.15 155.65 0
    endloop
  endfacet
  facet normal 0 0 -1
    outer loop
      vertex -36.85 143.15 0
      vertex -30.15 153.35 0
      vertex -9.84999 153.35 0
    endloop
  endfacet
  facet normal 0 0 -1
    outer loop
      vertex -30.15 155.65 0
      vertex -39 156 0
      vertex -9.84999 155.65 0
    endloop
  endfacet
  facet normal 0 0 -1
    outer loop
      vertex -9.84999 153.35 0
      vertex -9.84999 155.65 0
      vertex 9.84999 153.35 0
    endloop
  endfacet
  facet normal 0 0 -1
    outer loop
      vertex -9.84999 155.65 0
      vertex -39 156 0
      vertex 9.84999 155.65 0
    endloop
  endfacet
  facet normal 0 0 -1
    outer loop
      vertex 36.85 143.15 0
      vertex 30.15 153.35 0
      vertex 39 156 0
    endloop
  endfacet
  facet normal 0 0 -1
    outer loop
      vertex 9.84999 153.35 0
      vertex -9.84999 155.65 0
      vertex 9.84999 155.65 0
    endloop
  endfacet
  facet normal 0 0 -1
    outer loop
      vertex 36.85 122.85 0
      vertex 9.84999 153.35 0
      vertex 36.85 143.15 0
    endloop
  endfacet
  facet normal 0 0 -1
    outer loop
      vertex 9.84999 155.65 0
      vertex 39 156 0
      vertex 30.15 155.65 0
    endloop
  endfacet
  facet normal 0 0 -1
    outer loop
      vertex 9.84999 155.65 0
      vertex -39 156 0
      vertex 39 156 0
    endloop
  endfacet
  facet normal 0 0 -1
    outer loop
      vertex 30.15 155.65 0
      vertex 39 156 0
      vertex 30.15 153.35 0
    endloop
  endfacet
  facet normal 0 0 -1
    outer loop
      vertex -9.84999 0.849991 0
      vertex -9.84999 3.14999 0
      vertex 9.84999 0.849991 0
    endloop
  endfacet
  facet normal 0 0 -1
    outer loop
      vertex -36.85 36.15 0
      vertex 36.85 36.15 0
      vertex 9.84999 3.14999 0
    endloop
  endfacet
  facet normal 0 0 -1
    outer loop
      vertex -39 0 0
      vertex -30.15 0.849991 0
      vertex -9.84999 0.849991 0
    endloop
  endfacet
  facet normal 0 0 -1
    outer loop
      vertex -39 0 0
      vertex -36.85 15.85 0
      vertex -30.15 3.14999 0
    endloop
  endfacet
  facet normal 0 0 -1
    outer loop
      vertex -36.85 36.15 0
      vertex -9.84999 3.14999 0
      vertex -36.85 15.85 0
    endloop
  endfacet
  facet normal -0 -0 -1
    outer loop
      vertex 30.15 0.849991 0
      vertex 39 0 0
      vertex 9.84999 0.849991 0
    endloop
  endfacet
  facet normal 0 0 -1
    outer loop
      vertex 39 0 0
      vertex 30.15 3.14999 0
      vertex 36.85 15.85 0
    endloop
  endfacet
  facet normal 0 0 -1
    outer loop
      vertex 9.84999 3.14999 0
      vertex 36.85 36.15 0
      vertex 36.85 15.85 0
    endloop
  endfacet
  facet normal -0 0 -1
    outer loop
      vertex 9.84999 0.849991 0
      vertex -39 0 0
      vertex -9.84999 0.849991 0
    endloop
  endfacet
  facet normal 0 0 -1
    outer loop
      vertex -9.84999 3.14999 0
      vertex 9.84999 3.14999 0
      vertex 9.84999 0.849991 0
    endloop
  endfacet
  facet normal 0 0 -1
    outer loop
      vertex 30.15 0.849991 0
      vertex 30.15 3.14999 0
      vertex 39 0 0
    endloop
  endfacet
  facet normal 0 0 -1
    outer loop
      vertex 30.15 3.14999 0
      vertex 9.84999 3.14999 0
      vertex 36.85 15.85 0
    endloop
  endfacet
  facet normal 0 0 1
    outer loop
      vertex -36.85 122.85 2
      vertex -39 122.85 2
      vertex -36.85 89.65 2
    endloop
  endfacet
  facet normal 0 -0 1
    outer loop
      vertex 39 0 2
      vertex 39 15.85 2
      vertex 36.85 15.85 2
    endloop
  endfacet
  facet normal -0 0 1
    outer loop
      vertex -36.85 122.85 2
      vertex 36.85 89.65 2
      vertex 36.85 122.85 2
    endloop
  endfacet
  facet normal -0 0 1
    outer loop
      vertex -36.85 89.65 2
      vertex 36.85 69.35 2
      vertex 36.85 89.65 2
    endloop
  endfacet
  facet normal 0 -0 1
    outer loop
      vertex 39 36.15 2
      vertex 39 69.35 2
      vertex 36.85 69.35 2
    endloop
  endfacet
  facet normal 0 0 1
    outer loop
      vertex 39 36.15 2
      vertex 36.85 69.35 2
      vertex 36.85 36.15 2
    endloop
  endfacet
  facet normal 0 0 1
    outer loop
      vertex -36.85 122.85 2
      vertex 36.85 122.85 2
      vertex 9.84999 153.35 2
    endloop
  endfacet
  facet normal -0 0 1
    outer loop
      vertex -36.85 143.15 2
      vertex -36.85 122.85 2
      vertex -9.84999 153.35 2
    endloop
  endfacet
  facet normal 0 -0 1
    outer loop
      vertex 39 89.65 2
      vertex 39 122.85 2
      vertex 36.85 122.85 2
    endloop
  endfacet
  facet normal 0 0 1
    outer loop
      vertex 39 89.65 2
      vertex 36.85 122.85 2
      vertex 36.85 89.65 2
    endloop
  endfacet
  facet normal 0 0 1
    outer loop
      vertex -36.85 143.15 2
      vertex -39 156 2
      vertex -39 143.15 2
    endloop
  endfacet
  facet normal 0 -0 1
    outer loop
      vertex 39 143.15 2
      vertex 39 156 2
      vertex 36.85 143.15 2
    endloop
  endfacet
  facet normal 0 0 1
    outer loop
      vertex -30.15 153.35 2
      vertex -39 156 2
      vertex -36.85 143.15 2
    endloop
  endfacet
  facet normal 0 0 1
    outer loop
      vertex -39 122.85 2
      vertex -39 89.65 2
      vertex -36.85 89.65 2
    endloop
  endfacet
  facet normal -0 0 1
    outer loop
      vertex 9.84999 153.35 2
      vertex 36.85 143.15 2
      vertex 30.15 153.35 2
    endloop
  endfacet
  facet normal 0 0 1
    outer loop
      vertex -36.85 89.65 2
      vertex -36.85 69.35 2
      vertex 36.85 69.35 2
    endloop
  endfacet
  facet normal -0 0 1
    outer loop
      vertex -36.85 69.35 2
      vertex 36.85 36.15 2
      vertex 36.85 69.35 2
    endloop
  endfacet
  facet normal -0 0 1
    outer loop
      vertex -39 69.35 2
      vertex -36.85 36.15 2
      vertex -36.85 69.35 2
    endloop
  endfacet
  facet normal 0 0 1
    outer loop
      vertex -36.85 122.85 2
      vertex -36.85 89.65 2
      vertex 36.85 89.65 2
    endloop
  endfacet
  facet normal 0 0 1
    outer loop
      vertex -36.85 36.15 2
      vertex 36.85 36.15 2
      vertex -36.85 69.35 2
    endloop
  endfacet
  facet normal 0 0 1
    outer loop
      vertex -36.85 36.15 2
      vertex -39 69.35 2
      vertex -39 36.15 2
    endloop
  endfacet
  facet normal 0 -0 1
    outer loop
      vertex -30.15 3.14999 2
      vertex -9.84999 3.14999 2
      vertex -36.85 15.85 2
    endloop
  endfacet
  facet normal 0 -0 1
    outer loop
      vertex -9.84999 3.14999 2
      vertex 9.84999 3.14999 2
      vertex -36.85 36.15 2
    endloop
  endfacet
  facet normal 0 -0 1
    outer loop
      vertex -30.15 0.849991 2
      vertex -30.15 3.14999 2
      vertex -39 0 2
    endloop
  endfacet
  facet normal 0 0 1
    outer loop
      vertex -36.85 15.85 2
      vertex -39 15.85 2
      vertex -39 0 2
    endloop
  endfacet
  facet normal 0 0 1
    outer loop
      vertex 9.84999 0.849991 2
      vertex -39 0 2
      vertex 39 0 2
    endloop
  endfacet
  facet normal 0 0 1
    outer loop
      vertex 9.84999 153.35 2
      vertex -9.84999 153.35 2
      vertex -36.85 122.85 2
    endloop
  endfacet
  facet normal 0 0 1
    outer loop
      vertex -30.15 155.65 2
      vertex -39 156 2
      vertex -30.15 153.35 2
    endloop
  endfacet
  facet normal 0 0 1
    outer loop
      vertex -9.84999 153.35 2
      vertex -30.15 153.35 2
      vertex -36.85 143.15 2
    endloop
  endfacet
  facet normal 0 0 1
    outer loop
      vertex -9.84999 155.65 2
      vertex -39 156 2
      vertex -30.15 155.65 2
    endloop
  endfacet
  facet normal 0 0 1
    outer loop
      vertex 9.84999 153.35 2
      vertex -9.84999 155.65 2
      vertex -9.84999 153.35 2
    endloop
  endfacet
  facet normal 0 0 1
    outer loop
      vertex 9.84999 155.65 2
      vertex -39 156 2
      vertex -9.84999 155.65 2
    endloop
  endfacet
  facet normal 0 0 1
    outer loop
      vertex 39 156 2
      vertex 30.15 153.35 2
      vertex 36.85 143.15 2
    endloop
  endfacet
  facet normal 0 0 1
    outer loop
      vertex 9.84999 155.65 2
      vertex -9.84999 155.65 2
      vertex 9.84999 153.35 2
    endloop
  endfacet
  facet normal 0 0 1
    outer loop
      vertex 36.85 143.15 2
      vertex 9.84999 153.35 2
      vertex 36.85 122.85 2
    endloop
  endfacet
  facet normal 0 -0 1
    outer loop
      vertex 30.15 155.65 2
      vertex 39 156 2
      vertex 9.84999 155.65 2
    endloop
  endfacet
  facet normal 0 0 1
    outer loop
      vertex 39 156 2
      vertex -39 156 2
      vertex 9.84999 155.65 2
    endloop
  endfacet
  facet normal 0 0 1
    outer loop
      vertex 30.15 153.35 2
      vertex 39 156 2
      vertex 30.15 155.65 2
    endloop
  endfacet
  facet normal 0 0 1
    outer loop
      vertex 9.84999 0.849991 2
      vertex -9.84999 3.14999 2
      vertex -9.84999 0.849991 2
    endloop
  endfacet
  facet normal 0 -0 1
    outer loop
      vertex 9.84999 3.14999 2
      vertex 36.85 36.15 2
      vertex -36.85 36.15 2
    endloop
  endfacet
  facet normal 0 0 1
    outer loop
      vertex -9.84999 0.849991 2
      vertex -30.15 0.849991 2
      vertex -39 0 2
    endloop
  endfacet
  facet normal 0 0 1
    outer loop
      vertex -30.15 3.14999 2
      vertex -36.85 15.85 2
      vertex -39 0 2
    endloop
  endfacet
  facet normal -0 0 1
    outer loop
      vertex -36.85 15.85 2
      vertex -9.84999 3.14999 2
      vertex -36.85 36.15 2
    endloop
  endfacet
  facet normal -0 0 1
    outer loop
      vertex 9.84999 0.849991 2
      vertex 39 0 2
      vertex 30.15 0.849991 2
    endloop
  endfacet
  facet normal 0 0 1
    outer loop
      vertex 36.85 15.85 2
      vertex 30.15 3.14999 2
      vertex 39 0 2
    endloop
  endfacet
  facet normal 0 -0 1
    outer loop
      vertex 36.85 15.85 2
      vertex 36.85 36.15 2
      vertex 9.84999 3.14999 2
    endloop
  endfacet
  facet normal -0 0 1
    outer loop
      vertex -9.84999 0.849991 2
      vertex -39 0 2
      vertex 9.84999 0.849991 2
    endloop
  endfacet
  facet normal 0 -0 1
    outer loop
      vertex 9.84999 0.849991 2
      vertex 9.84999 3.14999 2
      vertex -9.84999 3.14999 2
    endloop
  endfacet
  facet normal 0 0 1
    outer loop
      vertex 39 0 2
      vertex 30.15 3.14999 2
      vertex 30.15 0.849991 2
    endloop
  endfacet
  facet normal 0 0 1
    outer loop
      vertex 36.85 15.85 2
      vertex 9.84999 3.14999 2
      vertex 30.15 3.14999 2
    endloop
  endfacet
  facet normal 0 1 0
    outer loop
      vertex 36.85 15.85 0
      vertex 39 15.85 2
      vertex 39 15.85 0
    endloop
  endfacet
  facet normal 0 1 0
    outer loop
      vertex 36.85 15.85 0
      vertex 36.85 15.85 2
      vertex 39 15.85 2
    endloop
  endfacet
  facet normal 1 0 0
    outer loop
      vertex 36.85 36.15 0
      vertex 36.85 15.85 2
      vertex 36.85 15.85 0
    endloop
  endfacet
  facet normal 1 0 -0
    outer loop
      vertex 36.85 36.15 0
      vertex 36.85 36.15 2
      vertex 36.85 15.85 2
    endloop
  endfacet
  facet normal 0 -1 0
    outer loop
      vertex 39 36.15 0
      vertex 36.85 36.15 2
      vertex 36.85 36.15 0
    endloop
  endfacet
  facet normal 0 -1 0
    outer loop
      vertex 39 36.15 0
      vertex 39 36.15 2
      vertex 36.85 36.15 2
    endloop
  endfacet
  facet normal 1 0 0
    outer loop
      vertex 39 69.35 0
      vertex 39 36.15 2
      vertex 39 36.15 0
    endloop
  endfacet
  facet normal 1 0 -0
    outer loop
      vertex 39 69.35 0
      vertex 39 69.35 2
      vertex 39 36.15 2
    endloop
  endfacet
  facet normal 0 1 0
    outer loop
      vertex 36.85 69.35 0
      vertex 39 69.35 2
      vertex 39 69.35 0
    endloop
  endfacet
  facet normal 0 1 0
    outer loop
      vertex 36.85 69.35 0
      vertex 36.85 69.35 2
      vertex 39 69.35 2
    endloop
  endfacet
  facet normal 1 0 0
    outer loop
      vertex 36.85 89.65 0
      vertex 36.85 69.35 2
      vertex 36.85 69.35 0
    endloop
  endfacet
  facet normal 1 0 -0
    outer loop
      vertex 36.85 89.65 0
      vertex 36.85 89.65 2
      vertex 36.85 69.35 2
    endloop
  endfacet
  facet normal 0 -1 0
    outer loop
      vertex 39 89.65 0
      vertex 36.85 89.65 2
      vertex 36.85 89.65 0
    endloop
  endfacet
  facet normal 0 -1 0
    outer loop
      vertex 39 89.65 0
      vertex 39 89.65 2
      vertex 36.85 89.65 2
    endloop
  endfacet
  facet normal 1 0 0
    outer loop
      vertex 39 122.85 0
      vertex 39 89.65 2
      vertex 39 89.65 0
    endloop
  endfacet
  facet normal 1 0 -0
    outer loop
      vertex 39 122.85 0
      vertex 39 122.85 2
      vertex 39 89.65 2
    endloop
  endfacet
  facet normal 0 1 0
    outer loop
      vertex 36.85 122.85 0
      vertex 39 122.85 2
      vertex 39 122.85 0
    endloop
  endfacet
  facet normal 0 1 0
    outer loop
      vertex 36.85 122.85 0
      vertex 36.85 122.85 2
      vertex 39 122.85 2
    endloop
  endfacet
  facet normal 1 0 0
    outer loop
      vertex 36.85 143.15 0
      vertex 36.85 122.85 2
      vertex 36.85 122.85 0
    endloop
  endfacet
  facet normal 1 0 -0
    outer loop
      vertex 36.85 143.15 0
      vertex 36.85 143.15 2
      vertex 36.85 122.85 2
    endloop
  endfacet
  facet normal 0 -1 0
    outer loop
      vertex 39 143.15 0
      vertex 36.85 143.15 2
      vertex 36.85 143.15 0
    endloop
  endfacet
  facet normal 0 -1 0
    outer loop
      vertex 39 143.15 0
      vertex 39 143.15 2
      vertex 36.85 143.15 2
    endloop
  endfacet
  facet normal 1 0 0
    outer loop
      vertex 39 156 0
      vertex 39 143.15 2
      vertex 39 143.15 0
    endloop
  endfacet
  facet normal 1 0 -0
    outer loop
      vertex 39 156 0
      vertex 39 156 2
      vertex 39 143.15 2
    endloop
  endfacet
  facet normal 0 1 0
    outer loop
      vertex -39 156 0
      vertex 39 156 2
      vertex 39 156 0
    endloop
  endfacet
  facet normal 0 1 0
    outer loop
      vertex -39 156 0
      vertex -39 156 2
      vertex 39 156 2
    endloop
  endfacet
  facet normal -1 0 0
    outer loop
      vertex -39 143.15 0
      vertex -39 156 2
      vertex -39 156 0
    endloop
  endfacet
  facet normal -1 0 0
    outer loop
      vertex -39 143.15 0
      vertex -39 143.15 2
      vertex -39 156 2
    endloop
  endfacet
  facet normal 0 -1 0
    outer loop
      vertex -36.85 143.15 0
      vertex -39 143.15 2
      vertex -39 143.15 0
    endloop
  endfacet
  facet normal 0 -1 0
    outer loop
      vertex -36.85 143.15 0
      vertex -36.85 143.15 2
      vertex -39 143.15 2
    endloop
  endfacet
  facet normal -1 0 0
    outer loop
      vertex -36.85 122.85 0
      vertex -36.85 143.15 2
      vertex -36.85 143.15 0
    endloop
  endfacet
  facet normal -1 0 0
    outer loop
      vertex -36.85 122.85 0
      vertex -36.85 122.85 2
      vertex -36.85 143.15 2
    endloop
  endfacet
  facet normal 0 1 0
    outer loop
      vertex -39 122.85 0
      vertex -36.85 122.85 2
      vertex -36.85 122.85 0
    endloop
  endfacet
  facet normal 0 1 0
    outer loop
      vertex -39 122.85 0
      vertex -39 122.85 2
      vertex -36.85 122.85 2
    endloop
  endfacet
  facet normal -1 0 0
    outer loop
      vertex -39 89.65 0
      vertex -39 122.85 2
      vertex -39 122.85 0
    endloop
  endfacet
  facet normal -1 0 0
    outer loop
      vertex -39 89.65 0
      vertex -39 89.65 2
      vertex -39 122.85 2
    endloop
  endfacet
  facet normal 0 -1 0
    outer loop
      vertex -36.85 89.65 0
      vertex -39 89.65 2
      vertex -39 89.65 0
    endloop
  endfacet
  facet normal 0 -1 0
    outer loop
      vertex -36.85 89.65 0
      vertex -36.85 89.65 2
      vertex -39 89.65 2
    endloop
  endfacet
  facet normal -1 0 0
    outer loop
      vertex -36.85 69.35 0
      vertex -36.85 89.65 2
      vertex -36.85 89.65 0
    endloop
  endfacet
  facet normal -1 0 0
    outer loop
      vertex -36.85 69.35 0
      vertex -36.85 69.35 2
      vertex -36.85 89.65 2
    endloop
  endfacet
  facet normal 0 1 0
    outer loop
      vertex -39 69.35 0
      vertex -36.85 69.35 2
      vertex -36.85 69.35 0
    endloop
  endfacet
  facet normal 0 1 0
    outer loop
      vertex -39 69.35 0
      vertex -39 69.35 2
      vertex -36.85 69.35 2
    endloop
  endfacet
  facet normal -1 0 0
    outer loop
      vertex -39 36.15 0
      vertex -39 69.35 2
      vertex -39 69.35 0
    endloop
  endfacet
  facet normal -1 0 0
    outer loop
      vertex -39 36.15 0
      vertex -39 36.15 2
      vertex -39 69.35 2
    endloop
  endfacet
  facet normal 0 -1 0
    outer loop
      vertex -36.85 36.15 0
      vertex -39 36.15 2
      vertex -39 36.15 0
    endloop
  endfacet
  facet normal 0 -1 0
    outer loop
      vertex -36.85 36.15 0
      vertex -36.85 36.15 2
      vertex -39 36.15 2
    endloop
  endfacet
  facet normal -1 0 0
    outer loop
      vertex -36.85 15.85 0
      vertex -36.85 36.15 2
      vertex -36.85 36.15 0
    endloop
  endfacet
  facet normal -1 0 0
    outer loop
      vertex -36.85 15.85 0
      vertex -36.85 15.85 2
      vertex -36.85 36.15 2
    endloop
  endfacet
  facet normal 0 1 0
    outer loop
      vertex -39 15.85 0
      vertex -36.85 15.85 2
      vertex -36.85 15.85 0
    endloop
  endfacet
  facet normal 0 1 0
    outer loop
      vertex -39 15.85 0
      vertex -39 15.85 2
      vertex -36.85 15.85 2
    endloop
  endfacet
  facet normal -1 0 0
    outer loop
      vertex -39 0 0
      vertex -39 15.85 2
      vertex -39 15.85 0
    endloop
  endfacet
  facet normal -1 0 0
    outer loop
      vertex -39 0 0
      vertex -39 0 2
      vertex -39 15.85 2
    endloop
  endfacet
  facet normal 0 -1 0
    outer loop
      vertex 39 0 0
      vertex -39 0 2
      vertex -39 0 0
    endloop
  endfacet
  facet normal 0 -1 0
    outer loop
      vertex 39 0 0
      vertex 39 0 2
      vertex -39 0 2
    endloop
  endfacet
  facet normal 1 0 0
    outer loop
      vertex 39 15.85 0
      vertex 39 0 2
      vertex 39 0 0
    endloop
  endfacet
  facet normal 1 0 -0
    outer loop
      vertex 39 15.85 0
      vertex 39 15.85 2
      vertex 39 0 2
    endloop
  endfacet
  facet normal 1 0 -0
    outer loop
      vertex -30.15 155.65 0
      vertex -30.15 155.65 2
      vertex -30.15 153.35 0
    endloop
  endfacet
  facet normal 1 -0 0
    outer loop
      vertex -30.15 153.35 2
      vertex -30.15 153.35 0
      vertex -30.15 155.65 2
    endloop
  endfacet
  facet normal 0 -1 0
    outer loop
      vertex -9.84999 155.65 0
      vertex -9.84999 155.65 2
      vertex -30.15 155.65 0
    endloop
  endfacet
  facet normal 0 -1 0
    outer loop
      vertex -30.15 155.65 2
      vertex -30.15 155.65 0
      vertex -9.84999 155.65 2
    endloop
  endfacet
  facet normal -1 0 0
    outer loop
      vertex -9.84999 153.35 0
      vertex -9.84999 153.35 2
      vertex -9.84999 155.65 0
    endloop
  endfacet
  facet normal -1 -0 -0
    outer loop
      vertex -9.84999 155.65 2
      vertex -9.84999 155.65 0
      vertex -9.84999 153.35 2
    endloop
  endfacet
  facet normal 0 1 0
    outer loop
      vertex -30.15 153.35 0
      vertex -30.15 153.35 2
      vertex -9.84999 153.35 0
    endloop
  endfacet
  facet normal 0 1 0
    outer loop
      vertex -9.84999 153.35 2
      vertex -9.84999 153.35 0
      vertex -30.15 153.35 2
    endloop
  endfacet
  facet normal 1 0 -0
    outer loop
      vertex 9.84999 155.65 0
      vertex 9.84999 155.65 2
      vertex 9.84999 153.35 0
    endloop
  endfacet
  facet normal 1 -0 0
    outer loop
      vertex 9.84999 153.35 2
      vertex 9.84999 153.35 0
      vertex 9.84999 155.65 2
    endloop
  endfacet
  facet normal 0 -1 0
    outer loop
      vertex 30.15 155.65 0
      vertex 30.15 155.65 2
      vertex 9.84999 155.65 0
    endloop
  endfacet
  facet normal 0 -1 0
    outer loop
      vertex 9.84999 155.65 2
      vertex 9.84999 155.65 0
      vertex 30.15 155.65 2
    endloop
  endfacet
  facet normal -1 0 0
    outer loop
      vertex 30.15 153.35 0
      vertex 30.15 153.35 2
      vertex 30.15 155.65 0
    endloop
  endfacet
  facet normal -1 -0 -0
    outer loop
      vertex 30.15 155.65 2
      vertex 30.15 155.65 0
      vertex 30.15 153.35 2
    endloop
  endfacet
  facet normal 0 1 0
    outer loop
      vertex 9.84999 153.35 0
      vertex 9.84999 153.35 2
      vertex 30.15 153.35 0
    endloop
  endfacet
  facet normal 0 1 0
    outer loop
      vertex 30.15 153.35 2
      vertex 30.15 153.35 0
      vertex 9.84999 153.35 2
    endloop
  endfacet
  facet normal 1 0 -0
    outer loop
      vertex -30.15 3.14999 0
      vertex -30.15 3.14999 2
      vertex -30.15 0.849991 0
    endloop
  endfacet
  facet normal 1 -0 0
    outer loop
      vertex -30.15 0.849991 2
      vertex -30.15 0.849991 0
      vertex -30.15 3.14999 2
    endloop
  endfacet
  facet normal 0 -1 0
    outer loop
      vertex -9.84999 3.14999 0
      vertex -9.84999 3.14999 2
      vertex -30.15 3.14999 0
    endloop
  endfacet
  facet normal 0 -1 0
    outer loop
      vertex -30.15 3.14999 2
      vertex -30.15 3.14999 0
      vertex -9.84999 3.14999 2
    endloop
  endfacet
  facet normal -1 0 0
    outer loop
      vertex -9.84999 0.849991 0
      vertex -9.84999 0.849991 2
      vertex -9.84999 3.14999 0
    endloop
  endfacet
  facet normal -1 -0 -0
    outer loop
      vertex -9.84999 3.14999 2
      vertex -9.84999 3.14999 0
      vertex -9.84999 0.849991 2
    endloop
  endfacet
  facet normal 0 1 0
    outer loop
      vertex -30.15 0.849991 0
      vertex -30.15 0.849991 2
      vertex -9.84999 0.849991 0
    endloop
  endfacet
  facet normal 0 1 0
    outer loop
      vertex -9.84999 0.849991 2
      vertex -9.84999 0.849991 0
      vertex -30.15 0.849991 2
    endloop
  endfacet
  facet normal 1 0 -0
    outer loop
      vertex 9.84999 3.14999 0
      vertex 9.84999 3.14999 2
      vertex 9.84999 0.849991 0
    endloop
  endfacet
  facet normal 1 -0 0
    outer loop
      vertex 9.84999 0.849991 2
      vertex 9.84999 0.849991 0
      vertex 9.84999 3.14999 2
    endloop
  endfacet
  facet normal 0 -1 0
    outer loop
      vertex 30.15 3.14999 0
      vertex 30.15 3.14999 2
      vertex 9.84999 3.14999 0
    endloop
  endfacet
  facet normal 0 -1 0
    outer loop
      vertex 9.84999 3.14999 2
      vertex 9.84999 3.14999 0
      vertex 30.15 3.14999 2
    endloop
  endfacet
  facet normal -1 0 0
    outer loop
      vertex 30.15 0.849991 0
      vertex 30.15 0.849991 2
      vertex 30.15 3.14999 0
    endloop
  endfacet
  facet normal -1 -0 -0
    outer loop
      vertex 30.15 3.14999 2
      vertex 30.15 3.14999 0
      vertex 30.15 0.849991 2
    endloop
  endfacet
  facet normal 0 1 0
    outer loop
      vertex 9.84999 0.849991 0
      vertex 9.84999 0.849991 2
      vertex 30.15 0.849991 0
    endloop
  endfacet
  facet normal 0 1 0
    outer loop
      vertex 30.15 0.849991 2
      vertex 30.15 0.849991 0
      vertex 9.84999 0.849991 2
    endloop
  endfacet
endsolid OpenSCAD_Model
