solid OpenSCAD_Model
  facet normal 1 0 0
    outer loop
      vertex 73 2 28
      vertex 73 0 28
      vertex 73 2 2
    endloop
  endfacet
  facet normal 1 -0 0
    outer loop
      vertex 73 2 2
      vertex 73 80 0
      vertex 73 80 2
    endloop
  endfacet
  facet normal 1 0 0
    outer loop
      vertex 73 2 2
      vertex 73 0 0
      vertex 73 80 0
    endloop
  endfacet
  facet normal 1 0 0
    outer loop
      vertex 73 0 0
      vertex 73 2 2
      vertex 73 0 28
    endloop
  endfacet
  facet normal -0 0 1
    outer loop
      vertex 0 80 2
      vertex 73 2 2
      vertex 73 80 2
    endloop
  endfacet
  facet normal 0 0 1
    outer loop
      vertex 73 2 2
      vertex 0 80 2
      vertex 0 2 2
    endloop
  endfacet
  facet normal 0 0 -1
    outer loop
      vertex 0 0 0
      vertex 73 80 0
      vertex 73 0 0
    endloop
  endfacet
  facet normal -0 0 -1
    outer loop
      vertex 73 80 0
      vertex 0 0 0
      vertex 0 80 0
    endloop
  endfacet
  facet normal -1 0 0
    outer loop
      vertex 0 80 0
      vertex 0 2 2
      vertex 0 80 2
    endloop
  endfacet
  facet normal -1 0 0
    outer loop
      vertex 0 0 0
      vertex 0 2 2
      vertex 0 80 0
    endloop
  endfacet
  facet normal -1 0 0
    outer loop
      vertex 0 0 28
      vertex 0 2 2
      vertex 0 0 0
    endloop
  endfacet
  facet normal -1 0 0
    outer loop
      vertex 0 2 2
      vertex 0 0 28
      vertex 0 2 28
    endloop
  endfacet
  facet normal 0 1 -0
    outer loop
      vertex 73 80 0
      vertex 0 80 2
      vertex 73 80 2
    endloop
  endfacet
  facet normal 0 1 0
    outer loop
      vertex 0 80 2
      vertex 73 80 0
      vertex 0 80 0
    endloop
  endfacet
  facet normal 0 -1 0
    outer loop
      vertex 0 0 0
      vertex 73 0 28
      vertex 0 0 28
    endloop
  endfacet
  facet normal 0 -1 -0
    outer loop
      vertex 73 0 28
      vertex 0 0 0
      vertex 73 0 0
    endloop
  endfacet
  facet normal -0 0 1
    outer loop
      vertex 0 2 28
      vertex 73 0 28
      vertex 73 2 28
    endloop
  endfacet
  facet normal 0 0 1
    outer loop
      vertex 73 0 28
      vertex 0 2 28
      vertex 0 0 28
    endloop
  endfacet
  facet normal 0 1 -0
    outer loop
      vertex 73 2 2
      vertex 0 2 28
      vertex 73 2 28
    endloop
  endfacet
  facet normal 0 1 0
    outer loop
      vertex 0 2 28
      vertex 73 2 2
      vertex 0 2 2
    endloop
  endfacet
endsolid OpenSCAD_Model
