solid OpenSCAD_Model
  facet normal -0 0 1
    outer loop
      vertex -34.5 92 1.2
      vertex 34.5 0 1.2
      vertex 34.5 92 1.2
    endloop
  endfacet
  facet normal 0 0 1
    outer loop
      vertex 34.5 0 1.2
      vertex -34.5 92 1.2
      vertex -34.5 0 1.2
    endloop
  endfacet
  facet normal 0 0 -1
    outer loop
      vertex -34.5 0 0
      vertex 34.5 92 0
      vertex 34.5 0 0
    endloop
  endfacet
  facet normal -0 0 -1
    outer loop
      vertex 34.5 92 0
      vertex -34.5 0 0
      vertex -34.5 92 0
    endloop
  endfacet
  facet normal 0 -1 0
    outer loop
      vertex -34.5 0 0
      vertex 34.5 0 1.2
      vertex -34.5 0 1.2
    endloop
  endfacet
  facet normal 0 -1 -0
    outer loop
      vertex 34.5 0 1.2
      vertex -34.5 0 0
      vertex 34.5 0 0
    endloop
  endfacet
  facet normal 1 -0 0
    outer loop
      vertex 34.5 0 1.2
      vertex 34.5 92 0
      vertex 34.5 92 1.2
    endloop
  endfacet
  facet normal 1 0 0
    outer loop
      vertex 34.5 92 0
      vertex 34.5 0 1.2
      vertex 34.5 0 0
    endloop
  endfacet
  facet normal 0 1 -0
    outer loop
      vertex 34.5 92 0
      vertex -34.5 92 1.2
      vertex 34.5 92 1.2
    endloop
  endfacet
  facet normal 0 1 0
    outer loop
      vertex -34.5 92 1.2
      vertex 34.5 92 0
      vertex -34.5 92 0
    endloop
  endfacet
  facet normal -1 0 0
    outer loop
      vertex -34.5 0 0
      vertex -34.5 92 1.2
      vertex -34.5 92 0
    endloop
  endfacet
  facet normal -1 -0 0
    outer loop
      vertex -34.5 92 1.2
      vertex -34.5 0 0
      vertex -34.5 0 1.2
    endloop
  endfacet
endsolid OpenSCAD_Model
